<?xml version="1.0" standalone="no"?>
<!DOCTYPE svg PUBLIC "-//W3C//DTD SVG 20010904//EN"
 "http://www.w3.org/TR/2001/REC-SVG-20010904/DTD/svg10.dtd">
<svg version="1.0" xmlns="http://www.w3.org/2000/svg"
 width="894.000000pt" height="894.000000pt" viewBox="0 0 894.000000 894.000000"
 preserveAspectRatio="xMidYMid meet">

<g transform="translate(0.000000,894.000000) scale(0.100000,-0.100000)"
fill="#000000" stroke="none">
<path d="M2810 8584 c-382 -5 -974 -24 -1058 -34 -164 -18 -416 -121 -607
-247 -192 -127 -381 -306 -502 -477 -70 -98 -177 -303 -216 -413 -92 -255
-101 -570 -94 -3293 5 -2050 9 -2275 43 -2437 77 -375 343 -776 679 -1026 164
-122 313 -197 540 -273 l129 -44 2762 0 2761 0 149 51 c310 105 545 255 761
483 254 268 406 577 434 880 8 85 13 906 16 2779 l4 2658 -42 127 c-56 168
-98 265 -163 376 -221 374 -567 662 -966 801 -149 51 -238 63 -575 76 -273 10
-3511 20 -4055 13z m1829 -566 c297 -166 299 -168 312 -381 4 -78 6 -173 3
-212 -9 -119 10 -511 25 -529 12 -14 17 -13 55 8 542 308 758 427 768 423 7
-3 407 -232 888 -510 l875 -504 6 -914 c3 -503 7 -1311 8 -1796 l1 -881 -157
-100 c-87 -54 -188 -115 -224 -135 l-66 -37 -59 31 c-93 50 -340 190 -572 326
-117 69 -215 123 -217 121 -2 -1 -7 -223 -12 -493 l-8 -490 -250 -149 c-496
-295 -1530 -908 -1536 -909 -3 -1 -458 262 -1010 585 -552 323 -1249 731
-1549 906 l-545 319 -2 284 -3 284 227 130 c229 131 554 322 563 332 18 18
-209 167 -567 374 l-233 134 0 1046 0 1046 367 211 c203 115 744 425 1203 688
1197 685 1533 874 1549 874 8 0 80 -37 160 -82z"/>
<path d="M3820 6652 c-172 -93 -287 -158 -985 -559 -291 -168 -535 -310 -542
-317 -13 -12 -23 -419 -11 -431 9 -10 115 48 658 358 516 294 915 527 976 568
49 34 58 61 75 229 13 122 6 230 -14 230 -7 0 -77 -35 -157 -78z"/>
<path d="M5148 5874 l-198 -116 0 -493 0 -493 43 -24 c23 -14 113 -66 200
-116 87 -51 160 -92 163 -92 6 0 2 954 -5 1223 l-6 228 -197 -117z"/>
<path d="M6270 4998 l0 -993 108 -57 c59 -32 149 -80 200 -108 l92 -50 -2 997
-3 997 -190 102 c-104 57 -193 103 -197 104 -5 0 -8 -447 -8 -992z"/>
<path d="M3915 5168 c-284 -147 -1135 -641 -1135 -658 0 -23 113 -99 325 -220
l30 -17 410 238 c226 131 414 239 418 241 4 2 11 85 14 184 6 171 1 255 -15
254 -4 -1 -25 -10 -47 -22z"/>
<path d="M4350 3904 c-124 -66 -230 -139 -230 -159 0 -15 235 -159 735 -447
387 -223 482 -275 489 -267 4 3 7 104 9 225 l2 219 -285 163 c-392 225 -571
322 -595 322 -11 0 -67 -25 -125 -56z"/>
<path d="M2997 3125 c-143 -79 -239 -143 -235 -157 2 -6 37 -31 78 -56 241
-147 1383 -789 1552 -873 l87 -43 38 18 c21 10 109 59 195 109 121 70 155 94
145 103 -19 18 -1242 710 -1556 880 -84 46 -161 84 -170 84 -9 0 -69 -29 -134
-65z"/>
</g>
</svg>
