<?xml version="1.0" standalone="no"?>
<!DOCTYPE svg PUBLIC "-//W3C//DTD SVG 20010904//EN"
 "http://www.w3.org/TR/2001/REC-SVG-20010904/DTD/svg10.dtd">
<svg version="1.0" xmlns="http://www.w3.org/2000/svg"
 width="290.000000pt" height="289.000000pt" viewBox="0 0 290.000000 289.000000"
 preserveAspectRatio="xMidYMid meet">

<g transform="translate(0.000000,289.000000) scale(0.100000,-0.100000)"
fill="#000000" stroke="none">
<path d="M480 2874 c-167 -36 -338 -170 -414 -324 -67 -138 -66 -116 -66
-1110 0 -749 3 -906 15 -965 43 -203 205 -384 404 -452 l66 -22 970 0 970 0
66 22 c180 61 335 219 389 396 19 61 20 97 20 1025 l-1 961 -22 66 c-68 199
-249 361 -452 404 -101 21 -1846 21 -1945 -1z m1042 -191 c106 -61 98 -44 98
-231 0 -139 2 -163 15 -159 8 4 73 40 146 82 l132 75 311 -179 311 -179 3
-628 2 -629 -75 -48 c-42 -26 -79 -47 -83 -47 -4 0 -72 38 -152 84 l-145 85
-3 -173 -2 -173 -314 -187 -314 -186 -543 318 -544 318 0 100 0 99 134 77 c74
42 138 81 142 85 5 5 -55 46 -136 94 l-145 84 0 366 0 366 543 311 c298 171
545 311 549 312 4 0 35 -17 70 -37z"/>
<path d="M975 2071 l-290 -167 -3 -77 c-2 -42 -1 -77 2 -77 8 0 570 322 582
334 17 16 26 156 11 155 -7 0 -142 -75 -302 -168z"/>
<path d="M1688 1939 l-68 -40 0 -174 0 -173 70 -41 70 -40 0 255 c0 139 -1
254 -2 254 -2 -1 -33 -19 -70 -41z"/>
<path d="M2080 1633 l0 -348 70 -38 70 -38 0 348 0 349 -70 38 -70 37 0 -348z"/>
<path d="M1066 1586 c-109 -63 -202 -118 -207 -123 -5 -5 19 -25 57 -47 l66
-38 147 85 146 84 3 77 c2 42 -1 76 -5 76 -4 0 -97 -52 -207 -114z"/>
<path d="M1382 1234 c-39 -22 -60 -40 -55 -45 10 -10 422 -249 429 -249 2 0 4
35 4 79 l0 79 -150 86 c-82 47 -153 86 -157 86 -4 0 -37 -16 -71 -36z"/>
<path d="M913 964 c-35 -20 -63 -39 -63 -44 0 -7 590 -340 603 -340 3 0 36 17
72 39 l67 39 -301 171 c-166 94 -305 171 -309 171 -4 -1 -35 -17 -69 -36z"/>
</g>
</svg>
